<svg width="23" height="20" viewBox="0 0 23 20" fill="none" xmlns="http://www.w3.org/2000/svg">
<g filter="url(#filter0_d_0_505)">
<path fill-rule="evenodd" clip-rule="evenodd" d="M13.5532 11.815C9.66857 11.815 6.51929 8.92783 6.51929 5.36821C6.51929 4.0253 6.96679 2.78158 7.73143 1.75C4.69036 2.69515 2.5 5.33122 2.5 8.43807C2.5 12.3385 5.94929 15.5 10.2036 15.5C13.5929 15.5 16.4696 13.4932 17.5 10.7045C16.375 11.4048 15.0161 11.815 13.5532 11.815Z" fill="white"/>
<path fill-rule="evenodd" clip-rule="evenodd" d="M13.5532 11.815C9.66857 11.815 6.51929 8.92783 6.51929 5.36821C6.51929 4.0253 6.96679 2.78158 7.73143 1.75C4.69036 2.69515 2.5 5.33122 2.5 8.43807C2.5 12.3385 5.94929 15.5 10.2036 15.5C13.5929 15.5 16.4696 13.4932 17.5 10.7045C16.375 11.4048 15.0161 11.815 13.5532 11.815Z" stroke="#111517" stroke-width="1.25"/>
</g>
<defs>
<filter id="filter0_d_0_505" x="-2.125" y="0.585434" width="24.8436" height="23.5396" filterUnits="userSpaceOnUse" color-interpolation-filters="sRGB">
<feFlood flood-opacity="0" result="BackgroundImageFix"/>
<feColorMatrix in="SourceAlpha" type="matrix" values="0 0 0 0 0 0 0 0 0 0 0 0 0 0 0 0 0 0 127 0" result="hardAlpha"/>
<feOffset dy="4"/>
<feGaussianBlur stdDeviation="2"/>
<feComposite in2="hardAlpha" operator="out"/>
<feColorMatrix type="matrix" values="0 0 0 0 0 0 0 0 0 0 0 0 0 0 0 0 0 0 0.25 0"/>
<feBlend mode="normal" in2="BackgroundImageFix" result="effect1_dropShadow_0_505"/>
<feBlend mode="normal" in="SourceGraphic" in2="effect1_dropShadow_0_505" result="shape"/>
</filter>
</defs>
</svg>
